<?xml version="1.0" standalone="no"?>
<!DOCTYPE svg PUBLIC "-//W3C//DTD SVG 1.0//EN" "http://www.w3.org/TR/2001/REC-SVG-20010904/DTD/svg10.dtd">
<svg xmlns="http://www.w3.org/2000/svg" xmlns:xlink="http://www.w3.org/1999/xlink" id="body_1" width="270" height="220">

<g transform="matrix(0.72 0 0 0.72 0 0)">
	<g>
        <path d="M-263.351 570.909C -233.66602 648.24 -189.66202 694.897 -91.56102 698.286C 6.5409775 701.676 75.52399 637.739 164.48198 625.06604C 253.43997 612.392 299.722 732.96106 405.21198 777.598C 510.69998 822.236 679.98694 777.931 783.11194 651.976C 886.24 526.021 878.62 327.29 799.392 238.798C 720.162 150.307 608.257 84.743 243.5 224.76C -121.25699 364.77698 -293.037 493.578 -263.352 570.909L-263.352 570.909L-263.351 570.909zM-514 -377.482C -514 -294.649 -489.64 -235.32199 -399.268 -197C -308.897 -158.679 -221.582 -193.648 -133.991 -173.6C -46.401 -153.552 -46.401 -24.404999 36.086 55.071C 118.572 134.547 292.491 153.85199 433.906 73.221C 575.321 -7.411003 639.426 -195.67499 597.173 -306.681C 554.919 -417.687 473.943 -519 83.236 -519C -307.471 -519 -514 -460.314 -514 -377.482z" stroke="none" fill="#4B3F6B" fill-rule="nonzero" />
	</g>
</g>
</svg>